# xmcd
#
# Track frame offsets:
# 150
# 10154
# 34789
# 62522
# 91258
# 110586
# 122001
# 139168
# 150685
#
# Disc length: 2268 seconds
#
# Revision: 0
# Processed by: cddbd v1.5.2PL0 Copyright (c) Steve Scherf et al.
# Submitted via: Audion 3.0.2 (http://www.panic.com/audion/)
#
DISCID=6d08da09
DTITLE=U2 - The Unforgettable Fire 
DYEAR=1900
DGENRE=
TTITLE0=A Sort of Homecoming
TTITLE1=Pride (In the Name of Love)
TTITLE2=Wire
TTITLE3=The Unforgettable Fire
TTITLE4=Promenade
TTITLE5=4th of July
TTITLE6=Bad
TTITLE7=Indian Summer Sky
TTITLE8=Elvis Presley and America
EXTD=
EXTT0=
EXTT1=
EXTT2=
EXTT3=
EXTT4=
EXTT5=
EXTT6=
EXTT7=
EXTT8=
PLAYORDER=
